<svg width="18" height="18" viewBox="0 0 18 18" fill="#469AD9" xmlns="http://www.w3.org/2000/svg">
<path d="M11.9313 9.092L17.9995 12.9282V5.09375L11.9313 9.092Z"/>
<path d="M0 5.09375V12.9282L6.06825 9.092L0 5.09375Z"/>
<path d="M16.8741 2.8125H1.12409C0.562712 2.8125 0.117212 3.231 0.0328369 3.76988L8.99909 9.67725L17.9653 3.76988C17.881 3.231 17.4355 2.8125 16.8741 2.8125Z"/>
<path d="M10.9015 9.77188L9.30963 10.8204C9.21513 10.8823 9.10825 10.9126 9.00025 10.9126C8.89225 10.9126 8.78538 10.8823 8.69088 10.8204L7.099 9.77075L0.0362549 14.2381C0.12288 14.7725 0.56613 15.1876 1.12525 15.1876H16.8753C17.4344 15.1876 17.8776 14.7725 17.9643 14.2381L10.9015 9.77188Z" />
</svg>
