<svg width="97" height="33" viewBox="0 0 97 33" fill="none" xmlns="http://www.w3.org/2000/svg">
<path d="M0 8.24186C0 3.69001 3.69001 0 8.24186 0H51.0995C55.6514 0 59.3414 3.69001 59.3414 8.24186V24.7256C59.3414 29.2774 55.6514 32.9674 51.0995 32.9674H8.24186C3.69001 32.9674 0 29.2774 0 24.7256V8.24186Z" fill="url(#paint0_linear_106_313)"/>
<path d="M51.3229 8.8587L50.9355 8.80945C50.9035 8.71117 50.8642 8.61639 50.8182 8.52634L51.0575 8.2183C51.1543 8.09365 51.143 7.91768 51.0323 7.81054L50.7078 7.48601C50.5996 7.37434 50.4236 7.36321 50.2988 7.45985L49.9911 7.69907C49.9011 7.65312 49.8063 7.61376 49.7078 7.58183L49.6586 7.19508C49.64 7.03992 49.5084 6.9231 49.3524 6.9231H48.8908C48.7348 6.9231 48.6032 7.03992 48.5846 7.19446L48.5354 7.58183C48.4369 7.61376 48.3421 7.65291 48.252 7.69907L47.9442 7.45985C47.8197 7.36321 47.6438 7.37434 47.5364 7.48498L47.2119 7.8093C47.1002 7.91768 47.0889 8.09365 47.1857 8.21851L47.4249 8.52634C47.3788 8.61639 47.3396 8.71117 47.3077 8.80945L46.9209 8.8587C46.7658 8.87724 46.6489 9.0089 46.6489 9.16488V9.62642C46.6489 9.7824 46.7658 9.91407 46.9203 9.93261L47.3077 9.98185C47.3396 10.0801 47.379 10.1749 47.4249 10.265L47.1857 10.573C47.0889 10.6977 47.1002 10.8736 47.2108 10.9808L47.5354 11.3053C47.6438 11.4168 47.8195 11.4279 47.9444 11.3313L48.2522 11.092C48.3423 11.1382 48.4371 11.1775 48.5354 11.2093L48.5846 11.5958C48.6032 11.7514 48.7348 11.8682 48.8908 11.8682H49.3524C49.5084 11.8682 49.64 11.7514 49.6586 11.5968L49.7078 11.2095C49.8061 11.1775 49.9009 11.1382 49.9909 11.0922L50.299 11.3315C50.4236 11.4283 50.5996 11.417 50.7068 11.3063L51.0313 10.9818C51.143 10.8734 51.1543 10.6977 51.0575 10.5728L50.8182 10.265C50.8644 10.1749 50.9038 10.0801 50.9355 9.98185L51.322 9.93261C51.4772 9.91407 51.594 9.7824 51.594 9.62642V9.16488C51.5942 9.0089 51.4774 8.87724 51.3229 8.8587ZM49.1216 10.4259C48.5535 10.4259 48.0913 9.96372 48.0913 9.39565C48.0913 8.82758 48.5535 8.36542 49.1216 8.36542C49.6897 8.36542 50.1519 8.82758 50.1519 9.39565C50.1519 9.96372 49.6897 10.4259 49.1216 10.4259Z" fill="white"/>
<path d="M23.1986 8.28532C23.4016 8.52532 23.5032 8.77455 23.5032 9.03302C23.5032 9.14379 23.494 9.26379 23.4755 9.39302C23.4755 9.50379 23.4663 9.60533 23.4478 9.69764C23.3924 9.90072 23.2724 10.0946 23.0878 10.2792C22.9401 10.39 22.737 10.473 22.4786 10.5284C22.3493 10.5653 22.2201 10.593 22.0909 10.6115C21.9616 10.63 21.8232 10.6577 21.6755 10.6946C21.5462 10.713 21.417 10.7223 21.2878 10.7223C21.1585 10.7223 21.0201 10.7223 20.8724 10.7223H19.4601C19.1278 10.7407 18.7954 10.75 18.4631 10.75C18.1493 10.75 17.8354 10.75 17.5216 10.75C17.54 11.3223 17.5493 11.9407 17.5493 12.6054C17.5493 13.2515 17.54 14.0085 17.5216 14.8762C17.5216 15.7439 17.5123 16.75 17.4939 17.8947C17.4939 19.0393 17.4939 20.3685 17.4939 21.8824V23.987C17.4939 24.1717 17.5031 24.3101 17.5216 24.4024C17.5216 24.4763 17.5216 24.5501 17.5216 24.624C17.5216 24.6794 17.5123 24.7532 17.4939 24.8455C17.457 25.0117 17.4293 25.2055 17.4108 25.4271C17.4108 25.5194 17.4016 25.6117 17.3831 25.704C17.3647 25.7778 17.337 25.8609 17.3 25.9532C17.2262 26.0271 17.1893 26.0825 17.1893 26.1194L17.1062 26.2855C17.0139 26.4701 16.8385 26.6455 16.58 26.8117C16.1739 27.0148 15.7216 27.0609 15.2231 26.9502C14.9092 26.9132 14.6692 26.8302 14.5031 26.7009C14.3369 26.5348 14.2169 26.3686 14.1431 26.2025C14.0323 25.9994 13.9677 25.8055 13.9492 25.6209C13.8938 25.4548 13.8661 25.2794 13.8661 25.0947V10.8607C13.7554 10.8607 13.5246 10.8607 13.1738 10.8607C12.8231 10.8607 12.4446 10.8607 12.0384 10.8607C11.6507 10.8423 11.2815 10.8238 10.9307 10.8053C10.58 10.7869 10.34 10.7684 10.2107 10.75C10.1 10.7315 9.92456 10.7038 9.68456 10.6669C9.46302 10.63 9.2784 10.593 9.13071 10.5561C8.74301 10.4453 8.43839 10.27 8.21685 10.03C8.01377 9.78995 7.91223 9.52226 7.91223 9.22687C7.91223 9.1161 7.91223 9.00533 7.91223 8.89456C7.91223 8.78378 7.93069 8.68225 7.96762 8.58994C8.023 8.3684 8.1707 8.18378 8.4107 8.03608C8.48455 7.9807 8.59532 7.91608 8.74301 7.84224C8.90917 7.74993 9.06609 7.68531 9.21379 7.64839C9.43533 7.57454 9.71225 7.51915 10.0446 7.48223C10.1923 7.46377 10.34 7.45454 10.4876 7.45454C10.6353 7.45454 10.7923 7.45454 10.9584 7.45454C11.6046 7.45454 12.2138 7.45454 12.7861 7.45454C13.3769 7.45454 13.9954 7.44531 14.6415 7.42685C15.7123 7.40838 16.7739 7.40838 17.8262 7.42685C18.897 7.42685 19.9585 7.44531 21.0109 7.48223C21.2509 7.50069 21.4816 7.52839 21.7032 7.56531C21.9247 7.60223 22.1462 7.66685 22.3678 7.75916C22.5339 7.81454 22.6909 7.88839 22.8386 7.9807C22.9863 8.05455 23.1063 8.15609 23.1986 8.28532Z" fill="white"/>
<path d="M43.3194 8.75609C43.4117 9.18071 43.421 9.61456 43.3471 10.0576C43.2917 10.4823 43.2087 10.87 43.0979 11.2207C42.8764 11.9407 42.6179 12.7438 42.3225 13.63C42.0271 14.5162 41.7317 15.4023 41.4363 16.2885C41.1409 17.1747 40.8548 18.0147 40.5779 18.8085C40.3009 19.5839 40.0702 20.2301 39.8855 20.747C39.7009 21.227 39.5071 21.7716 39.304 22.3809C39.1009 22.9901 38.8517 23.5901 38.5563 24.1809C38.2794 24.7532 37.9471 25.2794 37.5594 25.7594C37.1901 26.2394 36.7378 26.5902 36.2024 26.8117C35.667 27.0332 35.1778 27.0886 34.7347 26.9778C34.2916 26.8486 33.8947 26.6271 33.5439 26.3132C33.1932 25.9809 32.8701 25.5748 32.5747 25.0947C32.2978 24.5963 32.0485 24.0886 31.827 23.5717C31.6054 23.0547 31.4024 22.5563 31.2177 22.0763C31.0331 21.5778 30.867 21.1532 30.7193 20.8024C30.147 19.547 29.63 18.2177 29.1685 16.8146C28.707 15.4116 28.2362 14.0731 27.7562 12.7992C27.6269 12.43 27.4792 11.9869 27.3131 11.47C27.1469 10.9346 27.0362 10.4084 26.9808 9.89149C26.9439 9.3561 27.0085 8.87609 27.1746 8.45147C27.3408 8.00839 27.6916 7.70377 28.2269 7.53762C28.3377 7.50069 28.4485 7.473 28.5593 7.45454C28.6885 7.41761 28.8085 7.38992 28.9193 7.37146C29.0485 7.37146 29.1685 7.38069 29.2793 7.39915C29.39 7.41761 29.51 7.46377 29.6393 7.53762C29.7316 7.57454 29.8239 7.62069 29.9162 7.67608C30.0085 7.713 30.0916 7.76839 30.1654 7.84224C30.2393 7.93454 30.3039 8.02685 30.3593 8.11916C30.4331 8.21147 30.507 8.30378 30.5808 8.39609C30.6362 8.52532 30.6824 8.64532 30.7193 8.75609C30.7747 8.8484 30.8208 8.94071 30.8577 9.03302C30.8947 9.16225 30.9408 9.28225 30.9962 9.39302C31.0516 9.48533 31.0977 9.57764 31.1347 9.66995L31.3008 10.1407L35.2886 21.5224L39.2209 10.1684L39.4148 9.69764C39.4517 9.60533 39.4886 9.51302 39.5255 9.42072C39.5625 9.30994 39.5994 9.18994 39.6363 9.06071C39.6732 8.9684 39.7102 8.87609 39.7471 8.78378C39.8025 8.67301 39.8671 8.56224 39.9409 8.45147C39.9963 8.35916 40.0517 8.26685 40.1071 8.17455C40.1809 8.06378 40.2548 7.96224 40.3286 7.86993C40.384 7.79608 40.4486 7.73146 40.5225 7.67608C40.6148 7.62069 40.6979 7.57454 40.7717 7.53762C40.9194 7.46377 41.0486 7.41761 41.1594 7.39915C41.2886 7.38069 41.3994 7.37146 41.4917 7.37146C41.6025 7.38992 41.7133 7.41761 41.824 7.45454C41.9533 7.473 42.0733 7.50069 42.184 7.53762C42.5348 7.62992 42.7933 7.78685 42.9594 8.00839C43.144 8.22993 43.264 8.47917 43.3194 8.75609Z" fill="white"/>
<path d="M47.1576 24.9682L47.186 23.4109L47.2143 20.513C47.2332 20.0925 47.2427 19.6588 47.2427 19.212C47.2427 18.7652 47.2427 18.3052 47.2427 17.8321C47.2427 17.359 47.2427 16.9384 47.2427 16.5704C47.2427 16.2025 47.2616 15.7885 47.2994 15.3285V15.2497C47.3183 15.1182 47.3278 14.9868 47.3278 14.8554C47.3467 14.7108 47.3561 14.5663 47.3561 14.4217C47.375 14.1852 47.479 13.9289 47.6681 13.6529C47.8004 13.4689 47.9989 13.3112 48.2636 13.1798C48.5661 13.0747 48.8592 13.0221 49.1427 13.0221C49.294 13.0221 49.4263 13.0287 49.5398 13.0418C49.6721 13.0418 49.795 13.0484 49.9084 13.0615C50.1542 13.0878 50.3716 13.1667 50.5607 13.2981C50.6741 13.3638 50.7781 13.4689 50.8727 13.6135C50.9105 13.6923 50.9388 13.7712 50.9577 13.85C50.9955 13.9158 51.0239 13.988 51.0428 14.0669C51.0617 14.1589 51.0712 14.2443 51.0712 14.3232C51.0901 14.402 51.0995 14.4809 51.0995 14.5597C51.0995 14.6517 51.0901 14.7371 51.0712 14.816C51.0712 14.8817 51.0712 14.954 51.0712 15.0328V15.3679L50.901 25.599V25.7961C50.901 25.8356 50.8916 25.8881 50.8727 25.9538C50.8727 26.0064 50.8632 26.0721 50.8443 26.151C50.8065 26.2167 50.7687 26.289 50.7309 26.3678C50.7119 26.4335 50.6836 26.5058 50.6458 26.5847C50.5891 26.6504 50.5229 26.7161 50.4473 26.7818C50.3905 26.8344 50.3149 26.8869 50.2204 26.9395C50.0691 27.0446 49.8234 27.1169 49.4831 27.1563C48.9726 27.2352 48.4905 27.2023 48.0367 27.0578C47.8099 26.9526 47.6492 26.8212 47.5546 26.6635C47.4979 26.6241 47.4696 26.5847 47.4696 26.5452C47.4507 26.519 47.4317 26.4992 47.4128 26.4861C47.3939 26.473 47.375 26.4532 47.3561 26.427C47.3183 26.3613 47.29 26.2955 47.271 26.2298C47.2521 26.151 47.2427 26.0721 47.2427 25.9933C47.2238 25.9276 47.2049 25.8619 47.186 25.7961C47.186 25.7304 47.1765 25.6647 47.1576 25.599C47.1387 25.4939 47.1387 25.3822 47.1576 25.2639V24.9682Z" fill="white"/>
<path d="M79.0018 25.0856C79.1583 25.379 79.1681 25.6724 79.0312 25.9658C78.9334 26.2788 78.7671 26.5135 78.5324 26.67C78.415 26.7678 78.3074 26.8558 78.2096 26.9341C78.1118 26.9928 78.0042 27.0417 77.8869 27.0808C77.6717 27.1981 77.4174 27.2373 77.124 27.1981C77.0066 27.1981 76.8991 27.1786 76.8013 27.1395C76.7035 27.1003 76.6056 27.0514 76.5078 26.9928C76.41 26.9341 76.3025 26.8754 76.1851 26.8167C76.0873 26.7385 75.9895 26.6602 75.8917 26.582C75.7743 26.4842 75.6667 26.3962 75.5689 26.3179C75.4711 26.2397 75.3831 26.1516 75.3049 26.0538C75.2071 25.956 75.119 25.8582 75.0408 25.7604C74.9626 25.6626 74.8843 25.5746 74.8061 25.4964L74.454 25.1149L68.8205 19.2174L68.9085 25.1149V25.379C68.9085 25.4572 68.8987 25.5453 68.8792 25.6431C68.8596 25.7213 68.8401 25.8093 68.8205 25.9071C68.7618 26.1614 68.6934 26.3864 68.6151 26.582C68.576 26.6993 68.5173 26.7971 68.4391 26.8754C68.3804 26.9536 68.3119 27.0319 68.2337 27.1101C68.0185 27.3057 67.7642 27.4133 67.4708 27.4329C67.1774 27.5307 66.9036 27.56 66.6493 27.5209C66.4145 27.5013 66.17 27.4329 65.9157 27.3155C65.7201 27.1981 65.5441 27.0025 65.3876 26.7287C65.3485 26.6504 65.3191 26.6015 65.2996 26.582C65.2996 26.5624 65.28 26.494 65.2409 26.3766C65.1235 26.181 65.0649 25.9854 65.0649 25.7898C65.0453 25.6724 65.0257 25.5648 65.0062 25.467C65.0062 25.3692 64.9964 25.2616 64.9768 25.1443C64.9573 25.066 64.9475 24.9878 64.9475 24.9095C64.9475 24.8313 64.9475 24.7531 64.9475 24.6748C64.967 24.577 64.9768 24.4988 64.9768 24.4401C64.9768 24.3618 64.9768 24.2738 64.9768 24.176L64.9475 21.8581L64.9181 17.5449C64.9181 16.2931 64.8888 14.9434 64.8301 13.4959C64.8106 12.7917 64.8008 12.1658 64.8008 11.6181C64.8008 11.0704 64.8106 10.4542 64.8301 9.76958V9.65221C64.8692 9.43705 64.8888 9.23166 64.8888 9.03605C64.8888 8.82089 64.8986 8.6155 64.9181 8.41989C64.9181 8.02868 65.0062 7.63747 65.1822 7.24625C65.2996 6.95284 65.505 6.71811 65.7984 6.54207C65.9549 6.44426 66.1016 6.38558 66.2385 6.36602C66.395 6.3269 66.5612 6.28778 66.7373 6.24866C66.8742 6.24866 67.0014 6.25844 67.1187 6.278C67.2556 6.29756 67.3828 6.31712 67.5002 6.33668C67.7544 6.3758 67.9892 6.48339 68.2043 6.65943C68.263 6.71811 68.3119 6.78658 68.351 6.86482C68.4097 6.94306 68.4586 7.04087 68.4977 7.15823C68.5956 7.31471 68.664 7.53966 68.7031 7.83307C68.7227 7.95044 68.7325 8.0678 68.7325 8.18517C68.752 8.30253 68.7618 8.42967 68.7618 8.5666V9.76958L68.7912 13.3492C69.1041 13.0753 69.4073 12.7917 69.7007 12.4983C70.0137 12.2049 70.3169 11.8919 70.6103 11.5594C71.1384 11.0117 71.6568 10.4835 72.1654 9.97497C72.6935 9.44683 73.2217 8.92847 73.7498 8.41989L73.8378 8.33187C73.9943 8.17538 74.1508 8.02868 74.3073 7.89175C74.4833 7.73527 74.6496 7.58856 74.8061 7.45164C75.0995 7.11911 75.4613 6.88438 75.8917 6.74746C76.1655 6.57141 76.4883 6.50295 76.8599 6.54207C77.036 6.56163 77.1925 6.60075 77.3294 6.65943C77.4859 6.71811 77.6326 6.79636 77.7695 6.89416C77.8673 6.99196 77.9651 7.07999 78.0629 7.15823C78.1607 7.21691 78.239 7.29515 78.2976 7.39296C78.4541 7.52988 78.5519 7.73527 78.5911 8.00912C78.5911 8.22429 78.5519 8.41989 78.4737 8.59594C78.415 8.69374 78.3563 8.79155 78.2976 8.88935C78.239 8.98715 78.1705 9.08496 78.0923 9.18276C77.9945 9.30012 77.9064 9.40771 77.8282 9.50551C77.7499 9.60331 77.6619 9.70112 77.5641 9.79892C77.4859 9.89672 77.3979 9.98475 77.3001 10.063C77.2218 10.1412 77.1436 10.2293 77.0653 10.3271L76.6839 10.7085L71.1971 16.3126C71.4905 16.606 71.7937 16.919 72.1067 17.2515C72.4392 17.5645 72.7522 17.8775 73.0456 18.1905C73.339 18.4839 73.6129 18.7675 73.8672 19.0413C74.1214 19.2956 74.3366 19.5108 74.5127 19.6868C75.0408 20.2345 75.5494 20.7822 76.0384 21.3299C76.5274 21.8581 77.0066 22.396 77.4761 22.9437L77.5641 23.0317C77.7206 23.1882 77.8673 23.3545 78.0042 23.5305C78.1412 23.687 78.2683 23.8435 78.3857 24C78.6791 24.3325 78.8845 24.6944 79.0018 25.0856Z" fill="#2F72DB"/>
<path d="M95.8241 10.7378C95.5502 11.1486 95.2666 11.5496 94.9732 11.9408C94.6798 12.332 94.3962 12.7232 94.1223 13.1145C92.89 14.8749 91.6577 16.6256 90.4253 18.3665C89.2126 20.1074 87.9998 21.8679 86.7871 23.6479C87.0805 23.6479 87.3054 23.6479 87.4619 23.6479C87.6184 23.6479 87.7455 23.6479 87.8433 23.6479C87.9607 23.6479 88.0878 23.6479 88.2248 23.6479C88.3617 23.6479 88.5671 23.6577 88.8409 23.6772C89.1148 23.6772 89.4864 23.6772 89.9559 23.6772C90.4449 23.6772 91.0904 23.6772 91.8924 23.6772C92.401 23.6772 92.8998 23.6772 93.3888 23.6772C93.8974 23.6772 94.4059 23.6968 94.9145 23.7359C95.0123 23.7555 95.1199 23.775 95.2373 23.7946C95.3546 23.7946 95.4622 23.8141 95.56 23.8533L95.7361 23.9413C95.7361 23.9413 95.7947 23.9608 95.9121 24C96.1468 24.1369 96.3424 24.2934 96.4989 24.4694C96.7728 24.8606 96.851 25.3008 96.7337 25.7898C96.7141 25.9267 96.6652 26.0538 96.587 26.1712C96.5283 26.269 96.4598 26.357 96.3816 26.4353C96.2251 26.5918 96.0393 26.6993 95.8241 26.758C95.6089 26.8754 95.384 26.9439 95.1492 26.9634C95.0514 26.983 94.9536 27.0025 94.8558 27.0221C94.7776 27.0221 94.6896 27.0221 94.5918 27.0221H83.941C83.8236 27.0221 83.7062 27.0221 83.5889 27.0221C83.4715 27.0221 83.3542 27.0123 83.2368 26.9928C83.1781 26.9732 83.1194 26.9634 83.0607 26.9634C83.0216 26.9634 82.9825 26.9536 82.9434 26.9341C82.8651 26.9145 82.7869 26.9047 82.7087 26.9047C82.65 26.8852 82.5717 26.8656 82.4739 26.8461C82.2588 26.7287 82.0925 26.6211 81.9751 26.5233C81.7404 26.3473 81.6133 26.1614 81.5937 25.9658V25.9365C81.5546 25.8387 81.5252 25.7507 81.5057 25.6724C81.5057 25.5942 81.5155 25.4964 81.535 25.379C81.535 25.3594 81.5252 25.3497 81.5057 25.3497C81.5057 25.3301 81.5057 25.3008 81.5057 25.2616C81.5057 25.1443 81.5252 25.0367 81.5644 24.9389C81.6035 24.8215 81.6426 24.7042 81.6817 24.5868C81.7208 24.5281 81.7502 24.4694 81.7697 24.4107C81.8089 24.3325 81.8578 24.264 81.9164 24.2054C81.9556 24.1076 82.0045 24.0098 82.0632 23.9119C82.1414 23.8141 82.2001 23.7163 82.2392 23.6185C82.2783 23.5403 82.3174 23.4621 82.3566 23.3838C82.4152 23.286 82.4641 23.2078 82.5033 23.1491C82.5815 23.0708 82.6402 23.0024 82.6793 22.9437C82.738 22.8655 82.7869 22.7872 82.826 22.709L84.3518 20.5671L87.0805 16.606C87.5108 16.0388 87.9314 15.452 88.3421 14.8456C88.7725 14.2196 89.2126 13.5741 89.6625 12.9091C89.995 12.4005 90.2982 11.9604 90.572 11.5887C90.8459 11.1975 91.1393 10.777 91.4523 10.3271C90.7677 10.3271 90.1222 10.3271 89.5158 10.3271C88.9289 10.3271 88.3421 10.3271 87.7553 10.3271C87.1685 10.3075 86.5523 10.2977 85.9068 10.2977C85.2809 10.2782 84.5865 10.2586 83.8236 10.239C83.5498 10.2195 83.227 10.1804 82.8554 10.1217C82.5033 10.0434 82.2099 9.89672 81.9751 9.68156C81.76 9.48595 81.6328 9.28056 81.5937 9.06539C81.535 8.86979 81.5057 8.63506 81.5057 8.36121C81.5057 8.04824 81.5937 7.77439 81.7697 7.53966C81.9653 7.28537 82.2099 7.09955 82.5033 6.98218C82.914 6.8257 83.315 6.74746 83.7062 6.74746C83.9214 6.72789 84.1366 6.71811 84.3518 6.71811C84.5669 6.71811 84.7723 6.69855 84.9679 6.65943H85.1146C85.6819 6.63987 86.523 6.63987 87.6379 6.65943C88.7725 6.65943 90.1906 6.65943 91.8924 6.65943C92.1076 6.65943 92.3325 6.65943 92.5672 6.65943C92.802 6.63987 93.0269 6.63987 93.2421 6.65943C93.692 6.69855 94.1614 6.70833 94.6504 6.68877C95.159 6.66921 95.6187 6.7768 96.0295 7.01152C96.1468 7.07021 96.2544 7.13867 96.3522 7.21691C96.45 7.29515 96.5576 7.36362 96.675 7.4223C96.9097 7.63747 97.0173 7.89175 96.9977 8.18517C96.9977 8.47858 96.9293 8.78177 96.7923 9.09474C96.675 9.40771 96.5185 9.7109 96.3229 10.0043C96.1273 10.2977 95.961 10.5422 95.8241 10.7378Z" fill="#2F72DB"/>
<defs>
<linearGradient id="paint0_linear_106_313" x1="29.6707" y1="0" x2="29.6707" y2="32.9674" gradientUnits="userSpaceOnUse">
<stop stop-color="#44B7E8"/>
<stop offset="0.526042" stop-color="#3891E1"/>
<stop offset="1" stop-color="#2E6FDB"/>
</linearGradient>
</defs>
</svg>
