<svg width="114" height="114" viewBox="0 0 114 114" fill="none" xmlns="http://www.w3.org/2000/svg">
<path d="M42.5 66.0625H17.125C14.1271 66.0625 11.6875 63.6229 11.6875 60.625V53.375C11.6875 50.3771 14.1271 47.9375 17.125 47.9375H42.5C45.4979 47.9375 47.9375 50.3771 47.9375 53.375V60.625C47.9375 63.6229 45.4979 66.0625 42.5 66.0625Z" fill="#469AD9"/>
<path d="M93.25 37.0625H76.9375V18.9375H86C94.9954 18.9375 102.312 11.6186 102.312 2.625V0.8125H11.6875V2.625C11.6875 11.6186 19.0046 18.9375 28 18.9375H37.0625V37.0625H20.75C9.75719 37.0625 0.8125 46.0072 0.8125 57C0.8125 67.9928 9.75719 76.9375 20.75 76.9375H93.25C104.243 76.9375 113.188 67.9928 113.188 57C113.188 46.0072 104.243 37.0625 93.25 37.0625ZM15.4412 4.4375H98.557C97.6761 10.5782 92.3818 15.3125 86 15.3125H28C21.6182 15.3125 16.3239 10.5782 15.4412 4.4375ZM40.6875 18.9375H73.3125V37.0625H40.6875V18.9375ZM93.25 73.3125H20.75C11.7546 73.3125 4.4375 65.9954 4.4375 57C4.4375 48.0064 11.7546 40.6875 20.75 40.6875H93.25C102.245 40.6875 109.562 48.0064 109.562 57C109.562 65.9954 102.245 73.3125 93.25 73.3125Z" fill="black"/>
<path d="M100.5 51.5625C97.5021 51.5625 95.0625 54.0021 95.0625 57C95.0625 59.9979 97.5021 62.4375 100.5 62.4375C103.498 62.4375 105.938 59.9979 105.938 57C105.938 54.0021 103.498 51.5625 100.5 51.5625ZM100.5 58.8125C99.4995 58.8125 98.6875 57.9987 98.6875 57C98.6875 56.0013 99.4995 55.1875 100.5 55.1875C101.501 55.1875 102.312 56.0013 102.312 57C102.312 57.9987 101.501 58.8125 100.5 58.8125Z" fill="black"/>
<path d="M86 51.5625C83.0021 51.5625 80.5625 54.0021 80.5625 57C80.5625 59.9979 83.0021 62.4375 86 62.4375C88.9979 62.4375 91.4375 59.9979 91.4375 57C91.4375 54.0021 88.9979 51.5625 86 51.5625ZM86 58.8125C84.9995 58.8125 84.1875 57.9987 84.1875 57C84.1875 56.0013 84.9995 55.1875 86 55.1875C87.0005 55.1875 87.8125 56.0013 87.8125 57C87.8125 57.9987 87.0005 58.8125 86 58.8125Z" fill="black"/>
<path d="M71.5 51.5625C68.5021 51.5625 66.0625 54.0021 66.0625 57C66.0625 59.9979 68.5021 62.4375 71.5 62.4375C74.4979 62.4375 76.9375 59.9979 76.9375 57C76.9375 54.0021 74.4979 51.5625 71.5 51.5625ZM71.5 58.8125C70.4995 58.8125 69.6875 57.9987 69.6875 57C69.6875 56.0013 70.4995 55.1875 71.5 55.1875C72.5005 55.1875 73.3125 56.0013 73.3125 57C73.3125 57.9987 72.5005 58.8125 71.5 58.8125Z" fill="black"/>
<path d="M56.9999 109.563C48.7693 109.563 41.0317 106.356 35.2118 100.538L32.6489 103.101C39.154 109.604 47.8014 113.188 56.9999 113.188C66.1983 113.188 74.8457 109.604 81.3508 103.101L78.7879 100.538C72.968 106.356 65.2304 109.563 56.9999 109.563Z" fill="black"/>
<path d="M37.7766 97.9735C42.9114 103.108 49.7373 105.938 57 105.938C64.2627 105.938 71.0886 103.108 76.2234 97.9735L73.6605 95.4106C69.2108 99.8603 63.2948 102.313 57 102.313C50.7052 102.313 44.7892 99.8603 40.3395 95.4106L37.7766 97.9735Z" fill="black"/>
<path d="M42.9023 92.8475C46.7902 96.7354 51.8942 98.6784 57 98.6784C62.1058 98.6784 67.2116 96.7354 71.0976 92.8475L68.5347 90.2847C62.1728 96.6465 51.8253 96.6465 45.4634 90.2847L42.9023 92.8475Z" fill="black"/>
<path d="M67.2532 87.1908L64.6903 84.6279C60.4491 88.8656 53.5507 88.8656 49.3095 84.6279L46.7466 87.1908C49.5741 90.0183 53.2861 91.4302 56.9999 91.4302C60.7137 91.4302 64.4275 90.0183 67.2532 87.1908Z" fill="black"/>
</svg>
