<svg width="103" height="117" viewBox="0 0 103 117" fill="none" xmlns="http://www.w3.org/2000/svg">
<path d="M40.3438 54.7812C40.3438 52.7266 42.008 51.0625 44.0626 51.0625C46.1172 51.0625 47.7813 52.7266 47.7813 54.7812V47.3438C47.7813 45.2891 49.4455 43.625 51.5001 43.625C53.5547 43.625 55.2188 45.2891 55.2188 47.3438V54.7812C55.2188 52.7266 56.883 51.0625 58.9376 51.0625C60.9922 51.0625 62.6563 52.7266 62.6563 54.7812V57.2635L62.8925 57.23C63.4131 55.8039 64.7686 54.7812 66.3751 54.7812C66.5368 54.7812 66.6912 54.8091 66.8473 54.8296L70.2426 27.6753L69.0656 27.0877C68.7458 26.9278 61.126 23.1719 51.5001 23.1719C41.8741 23.1719 34.2544 26.9278 33.9346 27.0859L32.7576 27.6734L36.8426 60.3594H40.3438V54.7812Z" fill="#469AD9"/>
<path d="M51.5 0.859375C29.9703 0.859375 12.4531 18.3747 12.4531 39.9062C12.4531 53.8032 19.9334 66.7631 31.9747 73.7283L32.4061 73.9774H32.9062V65.9765C32.9062 65.0599 33.5831 64.3291 34.4588 64.1785L34.2989 64.1841C26.7052 58.7938 21.75 49.9283 21.75 39.9062C21.75 23.475 35.0687 10.1562 51.5 10.1562C67.9313 10.1562 81.25 23.475 81.25 39.9062C81.25 49.2998 76.8953 57.6782 70.0956 63.1298H70.0938V73.9774H70.5921L71.0234 73.7283C83.0666 66.7631 90.5469 53.8032 90.5469 39.9062C90.5469 18.3747 73.0297 0.859375 51.5 0.859375Z" fill="#469AD9"/>
<path d="M51.5 8.29688C34.0702 8.29688 19.8906 22.4765 19.8906 39.9062C19.8906 49.3835 24.1783 58.3531 31.4504 64.3329C31.2012 64.8312 31.0469 65.3853 31.0469 65.9765V84.5312C31.0469 87.3296 31.971 90.1038 33.65 92.3406L35.448 94.7374C33.9215 95.734 32.9063 97.4502 32.9063 99.4062V116.141H70.0938V99.4062C70.0938 97.4502 69.0785 95.734 67.552 94.7374L69.35 92.3406C71.029 90.1019 71.9531 87.3296 71.9531 84.5312V63.9591C79.0355 57.9329 83.1094 49.2366 83.1094 39.9062C83.1094 22.4765 68.9298 8.29688 51.5 8.29688ZM36.625 112.422V104.984H40.3438V101.266H36.625V99.4062C36.625 98.3817 37.458 97.5469 38.4844 97.5469H64.5156C65.542 97.5469 66.375 98.3817 66.375 99.4062V101.266H44.0625V104.984H66.375V112.422H36.625ZM68.2344 84.5312C68.2344 86.5301 67.5743 88.5122 66.375 90.1094L63.5859 93.8281H39.4141L36.625 90.1094C35.4257 88.5122 34.7656 86.5301 34.7656 84.5312L34.7675 65.9765C35.7288 65.9933 36.6882 66.3447 37.3929 67.042C38.0958 67.7411 38.4844 68.6689 38.4844 69.6562V77.0938H42.2031V69.6562V54.7812C42.2031 53.7567 43.0361 52.9219 44.0625 52.9219C45.0889 52.9219 45.9219 53.7567 45.9219 54.7812V71.5156H49.6406V54.7812V47.3438C49.6406 46.3192 50.4736 45.4844 51.5 45.4844C52.5264 45.4844 53.3594 46.3192 53.3594 47.3438V54.7812V71.5156H57.0781V54.7812C57.0781 53.7567 57.9111 52.9219 58.9375 52.9219C59.9639 52.9219 60.7969 53.7567 60.7969 54.7812V58.5V71.5156H64.5156V58.5C64.5156 57.4755 65.3486 56.6406 66.375 56.6406C67.4014 56.6406 68.2344 57.4755 68.2344 58.5V84.5312ZM51.5 41.7656C49.8638 41.7656 48.4023 42.4871 47.3815 43.6138C46.4741 42.6042 45.9219 41.3045 45.9219 39.9062C45.9219 36.8308 48.4246 34.3281 51.5 34.3281C54.5754 34.3281 57.0781 36.8308 57.0781 39.9062C57.0781 41.3026 56.5259 42.6042 55.6185 43.6157C54.5977 42.4871 53.1381 41.7656 51.5 41.7656ZM78.8291 34.3281C79.1954 36.1317 79.3906 37.9967 79.3906 39.9062C79.3906 41.8047 79.1731 43.6659 78.8031 45.4844H68.015L67.5501 49.2031H77.8027C76.5458 52.7713 74.5618 56.0549 71.9513 58.8626V58.5C71.9513 55.4246 69.4486 52.9219 66.3731 52.9219C65.6387 52.9219 64.9414 53.0725 64.2981 53.3309C63.6585 50.9602 61.509 49.2031 58.9375 49.2031C58.283 49.2031 57.662 49.337 57.0781 49.5452V47.3438V47.3419C59.3986 45.5997 60.7969 42.8534 60.7969 39.9062C60.7969 34.78 56.6263 30.6094 51.5 30.6094C46.3737 30.6094 42.2031 34.78 42.2031 39.9062C42.2031 42.8552 43.6014 45.6015 45.9219 47.3419V47.3438V49.5452C45.338 49.337 44.717 49.2031 44.0625 49.2031C40.9871 49.2031 38.4844 51.7058 38.4844 54.7812V63.273C37.3762 62.6315 36.1304 62.269 34.8623 62.2708C30.3831 58.9295 27.066 54.3573 25.2382 49.2031H35.448L34.9832 45.4844H24.2192C23.8455 43.6603 23.6094 41.801 23.6094 39.9062C23.6094 37.9967 23.8046 36.1317 24.1709 34.3281H33.5886L33.1238 30.6094H25.2363C29.0778 19.7952 39.3843 12.0156 51.5 12.0156C63.6157 12.0156 73.9222 19.7952 77.7637 30.6094H69.8762L69.4114 34.3281H78.8291Z" fill="black"/>
<path d="M101.398 15.7083L102.008 12.0398L89.0762 9.88477L86.8654 20.9462L90.5116 21.6769L91.4692 16.8872C94.8291 22.6382 97.9844 30.5275 97.9844 39.9062C97.9844 49.9078 94.857 59.4352 88.9423 67.4603L91.934 69.6674C98.3265 60.999 101.703 50.7073 101.703 39.9062C101.703 29.4677 98.1239 20.7714 94.3995 14.5425L101.398 15.7083Z" fill="black"/>
<path d="M11.5309 62.9234C8.17099 57.1742 5.01563 49.2849 5.01563 39.9062C5.01563 29.9046 8.1431 20.3772 14.0578 12.3521L11.066 10.145C4.67351 18.8134 1.29688 29.1051 1.29688 39.9062C1.29688 50.3447 4.87618 59.041 8.60051 65.2699L1.60182 64.1041L0.991943 67.7726L13.9239 69.9276L16.1347 58.8662L12.4885 58.1355L11.5309 62.9234Z" fill="black"/>
</svg>
