<svg width="119" height="119" viewBox="0 0 119 119" fill="none" xmlns="http://www.w3.org/2000/svg">
<path d="M80.2969 102.984H61.3906V89.75H80.2969V102.984Z" fill="#469AD9"/>
<path d="M110.547 102.984H91.6406V89.75H110.547V102.984Z" fill="#469AD9"/>
<path d="M95.4219 76.5156H76.5156V63.2812H95.4219V76.5156Z" fill="#469AD9"/>
<path d="M55.7188 27.3594C48.4228 27.3594 42.4844 21.4228 42.4844 14.125C42.4844 6.82719 48.4228 0.890625 55.7188 0.890625C63.0147 0.890625 68.9531 6.82719 68.9531 14.125C68.9531 21.4228 63.0147 27.3594 55.7188 27.3594ZM55.7188 10.3438C53.6334 10.3438 51.9375 12.0396 51.9375 14.125C51.9375 16.2104 53.6334 17.9062 55.7188 17.9062C57.8041 17.9062 59.5 16.2104 59.5 14.125C59.5 12.0396 57.8041 10.3438 55.7188 10.3438Z" fill="#469AD9"/>
<path d="M17.9062 65.1719C8.52308 65.1719 0.890625 57.5375 0.890625 48.1562C0.890625 38.775 8.52308 31.1406 17.9062 31.1406C27.2894 31.1406 34.9219 38.775 34.9219 48.1562C34.9219 57.5375 27.2894 65.1719 17.9062 65.1719ZM17.9062 40.5938C13.7374 40.5938 10.3438 43.9855 10.3438 48.1562C10.3438 52.327 13.7374 55.7188 17.9062 55.7188C22.0751 55.7188 25.4688 52.327 25.4688 48.1562C25.4688 43.9855 22.0751 40.5938 17.9062 40.5938Z" fill="#469AD9"/>
<path d="M102.984 76.4041C111.479 75.4588 118.109 68.2422 118.109 59.5V55.7188C118.109 46.3375 110.477 38.7031 101.094 38.7031H99.2031V36.8125C99.2031 33.6854 96.6583 31.1406 93.5312 31.1406H91.6406V19.7969C93.726 19.7969 95.4219 18.101 95.4219 16.0156V12.2344C95.4219 10.149 93.726 8.45312 91.6406 8.45312H67.658C68.2196 9.62909 68.6109 10.8996 68.8019 12.2344H91.6406V16.0156H68.8019C68.609 17.3504 68.2196 18.6209 67.658 19.7969H80.2969V31.1406H78.4062C75.2792 31.1406 72.7344 33.6854 72.7344 36.8125V38.7031H70.8437C61.4606 38.7031 53.8281 46.3375 53.8281 55.7188V59.5C53.8281 68.2422 60.4585 75.4607 68.9531 76.4041V85.9688C68.9531 86.6342 69.0892 87.2657 69.301 87.8594H59.5C56.3729 87.8594 53.8281 90.4042 53.8281 93.5312V112.438C53.8281 115.565 56.3729 118.109 59.5 118.109H82.1875C83.6452 118.109 84.9629 117.54 85.9687 116.635C86.9746 117.542 88.2923 118.109 89.75 118.109H112.437C115.565 118.109 118.109 115.565 118.109 112.438V93.5312C118.109 90.4042 115.565 87.8594 112.437 87.8594H102.636C102.848 87.2657 102.984 86.6342 102.984 85.9688V76.4041ZM69.3691 64.9526C66.9585 64.3003 65.1719 62.1147 65.1719 59.5V55.7188C65.1719 52.5917 67.7167 50.0469 70.8437 50.0469H80.2969V51.9375C80.2969 55.0646 82.8417 57.6094 85.9687 57.6094C89.0958 57.6094 91.6406 55.0646 91.6406 51.9375V50.0469H101.094C104.221 50.0469 106.766 52.5917 106.766 55.7188V59.5C106.766 62.1147 104.979 64.2984 102.568 64.9526C101.729 62.8691 99.6928 61.3906 97.3125 61.3906H74.625C72.2447 61.3906 70.2085 62.8691 69.3691 64.9526ZM87.8594 42.4844V51.9375C87.8594 52.9792 87.0124 53.8281 85.9687 53.8281C84.9251 53.8281 84.0781 52.9792 84.0781 51.9375V42.4844H87.8594ZM114.328 55.7188V59.5C114.328 66.1531 109.386 71.6605 102.984 72.5831V68.7622C107.293 67.883 110.547 64.0659 110.547 59.5V55.7188C110.547 50.5063 106.306 46.2656 101.094 46.2656H91.6406V42.4844H101.094C108.39 42.4844 114.328 48.4209 114.328 55.7188ZM84.0781 19.7969H87.8594V31.1406H84.0781V19.7969ZM76.5156 36.8125C76.5156 35.7708 77.3626 34.9219 78.4062 34.9219H93.5312C94.5749 34.9219 95.4219 35.7708 95.4219 36.8125V38.7031H76.5156V36.8125ZM57.6094 59.5V55.7188C57.6094 48.4209 63.5478 42.4844 70.8437 42.4844H80.2969V46.2656H70.8437C65.6313 46.2656 61.3906 50.5063 61.3906 55.7188V59.5C61.3906 64.064 64.6444 67.883 68.9531 68.7622V72.5831C62.5515 71.6605 57.6094 66.1531 57.6094 59.5ZM82.1875 114.328H59.5C58.4564 114.328 57.6094 113.479 57.6094 112.438V93.5312C57.6094 92.4895 58.4564 91.6406 59.5 91.6406H74.625H82.1875C83.2311 91.6406 84.0781 92.4895 84.0781 93.5312V112.438C84.0781 113.479 83.2311 114.328 82.1875 114.328ZM114.328 93.5312V112.438C114.328 113.479 113.481 114.328 112.437 114.328H89.75C88.7064 114.328 87.8594 113.479 87.8594 112.438V93.5312C87.8594 92.4895 88.7064 91.6406 89.75 91.6406H97.3125H112.437C113.481 91.6406 114.328 92.4895 114.328 93.5312ZM89.75 87.8594H82.1875H74.625C73.5814 87.8594 72.7344 87.0105 72.7344 85.9688V67.0625C72.7344 66.0208 73.5814 65.1719 74.625 65.1719H97.3125C98.3561 65.1719 99.2031 66.0208 99.2031 67.0625V85.9688C99.2031 87.0105 98.3561 87.8594 97.3125 87.8594H89.75Z" fill="black"/>
<path d="M84.0781 68.9531H87.8594V76.5156H84.0781V68.9531Z" fill="black"/>
<path d="M33.6135 41.6223C34.1864 42.993 34.5721 44.4582 34.7668 45.9821L52.0793 26.8395C50.7861 26.4689 49.5742 25.9112 48.4757 25.189L33.6135 41.6223Z" fill="black"/>
<path d="M23.1055 31.9592L43.114 18.1463C42.7075 16.8777 42.4845 15.5278 42.4845 14.125C42.4845 14.0777 42.492 14.0304 42.492 13.9832L17.6133 31.1557C17.7116 31.1538 17.808 31.1406 17.9063 31.1406C19.7194 31.1406 21.4645 31.4317 23.1055 31.9592Z" fill="black"/>
<path d="M55.7188 19.7969C58.8458 19.7969 61.3906 17.2521 61.3906 14.125C61.3906 10.9979 58.8458 8.45312 55.7188 8.45312C52.5917 8.45312 50.0469 10.9979 50.0469 14.125C50.0469 17.2521 52.5917 19.7969 55.7188 19.7969ZM55.7188 12.2344C56.7624 12.2344 57.6094 13.0833 57.6094 14.125C57.6094 15.1667 56.7624 16.0156 55.7188 16.0156C54.6751 16.0156 53.8281 15.1667 53.8281 14.125C53.8281 13.0833 54.6751 12.2344 55.7188 12.2344Z" fill="black"/>
<path d="M17.9062 57.6094C23.1187 57.6094 27.3594 53.3687 27.3594 48.1562C27.3594 42.9438 23.1187 38.7031 17.9062 38.7031C12.6938 38.7031 8.45312 42.9438 8.45312 48.1562C8.45312 53.3687 12.6938 57.6094 17.9062 57.6094ZM17.9062 42.4844C21.0333 42.4844 23.5781 45.0292 23.5781 48.1562C23.5781 51.2833 21.0333 53.8281 17.9062 53.8281C14.7792 53.8281 12.2344 51.2833 12.2344 48.1562C12.2344 45.0292 14.7792 42.4844 17.9062 42.4844Z" fill="black"/>
<path d="M41.9966 96.3672L41.2044 96.2481L30.927 59.0879C30.0119 60.1769 28.9569 61.1411 27.8018 61.9711L37.1112 95.6337L19.4433 92.983L12.4688 64.2644C10.8655 63.7218 9.37383 62.9485 8.02393 61.9805L15.4049 92.378L8.4531 91.3363V118.109H50.0468V105.716C50.0468 100.999 46.6607 97.0668 41.9966 96.3672ZM46.2656 114.328H12.2343V95.7263L38.2153 99.6229L38.238 99.708L38.4271 99.655L41.4351 100.107C44.2351 100.527 46.2656 102.886 46.2656 105.716V114.328Z" fill="black"/>
</svg>
