<svg width="120" height="120" viewBox="0 0 120 120" fill="none" xmlns="http://www.w3.org/2000/svg">
<path d="M32.2706 97.5H41.25C37.1081 97.5 33.75 94.1419 33.75 90C33.75 85.8581 37.1081 82.5 41.25 82.5C45.3919 82.5 48.75 85.8581 48.75 90C48.75 94.1419 45.3919 97.5 41.25 97.5H50.2294C52.1812 97.5 54.0956 97.7494 55.9537 98.1825C57.3562 95.6681 58.125 92.8631 58.125 90C58.125 80.6944 50.5537 73.125 41.25 73.125C31.9462 73.125 24.375 80.6944 24.375 90C24.375 92.8631 25.1437 95.6681 26.5462 98.1825C28.4044 97.7494 30.3188 97.5 32.2706 97.5Z" fill="#469AD9"/>
<path d="M97.5 41.25C90.2625 41.25 84.375 35.3625 84.375 28.125C84.375 20.8875 90.2625 15 97.5 15C104.737 15 110.625 20.8875 110.625 28.125C110.625 35.3625 104.737 41.25 97.5 41.25ZM97.5 24.375C95.4319 24.375 93.75 26.0569 93.75 28.125C93.75 30.1931 95.4319 31.875 97.5 31.875C99.5681 31.875 101.25 30.1931 101.25 28.125C101.25 26.0569 99.5681 24.375 97.5 24.375Z" fill="#469AD9"/>
<path d="M9.375 28.125C9.375 32.2613 12.7387 35.625 16.875 35.625C21.0113 35.625 24.375 32.2613 24.375 28.125C24.375 23.9887 21.0113 20.625 16.875 20.625C12.7387 20.625 9.375 23.9887 9.375 28.125ZM20.625 28.125C20.625 30.1931 18.9431 31.875 16.875 31.875C14.8069 31.875 13.125 30.1931 13.125 28.125C13.125 26.0569 14.8069 24.375 16.875 24.375C18.9431 24.375 20.625 26.0569 20.625 28.125Z" fill="black"/>
<path d="M88.3313 37.5C87.2306 36.4238 86.3288 35.1544 85.6594 33.75H76.875V22.5H85.6594C86.3288 21.0956 87.2325 19.8263 88.3313 18.75H73.125V22.5H65.625V16.875H52.3781C51.3356 8.45062 43.3838 1.875 33.75 1.875C25.7269 1.875 18.6562 6.45375 16.05 13.1662C8.16375 13.5994 1.875 20.1319 1.875 28.125C1.875 34.1494 5.39438 39.39 10.7025 41.7675C5.12625 46.365 1.875 52.9894 1.875 60C1.875 72.5888 12.2062 82.9762 25.4081 84.2438C25.8825 82.9444 26.4919 81.7125 27.2531 80.5837C15.2531 80.16 5.625 71.1038 5.625 60C5.625 54.0037 8.4975 48.3412 13.3856 44.4431L14.8687 48.0919C11.37 51.2438 9.375 55.5037 9.375 60C9.375 68.7619 16.9631 76.0575 26.5294 76.7962L27.78 79.8769C28.6069 78.7781 29.5556 77.7769 30.6206 76.9088L15.3469 39.3056L14.3906 39.09C9.22875 37.9256 5.625 33.4163 5.625 28.125C5.625 21.9206 10.6706 16.875 16.875 16.875C23.0794 16.875 28.125 21.9206 28.125 28.125C28.125 30.3019 27.495 32.4206 26.3025 34.2488L25.7681 35.07L41.2275 73.1269C41.235 73.1269 41.2425 73.125 41.25 73.125C42.7219 73.125 44.1412 73.3331 45.5044 73.6894L31.5656 39.375H65.625V33.75H73.125V37.5H88.3313ZM13.125 60C13.125 57.0169 14.3025 54.1575 16.395 51.8512L24.9131 72.8194C18.1969 71.5181 13.125 66.2288 13.125 60ZM33.75 5.625C41.2912 5.625 47.5331 10.5244 48.5794 16.875H44.7731C43.7269 12.6019 39.1838 9.375 33.75 9.375C29.3119 9.375 25.4363 11.5406 23.6156 14.7431C22.4888 14.1731 21.285 13.7325 20.0175 13.4625C22.3781 8.75812 27.7162 5.625 33.75 5.625ZM26.7638 16.875C26.7469 16.86 26.73 16.845 26.7131 16.83C27.7837 14.6606 30.5944 13.125 33.75 13.125C37.005 13.125 39.7537 14.6981 40.7887 16.875H26.7638ZM29.9644 35.4375C31.2169 33.2025 31.875 30.6956 31.875 28.125C31.875 25.3913 31.1287 22.8337 29.8463 20.625H54.375V35.625H30.0412L29.9644 35.4375ZM61.875 35.625H58.125V20.625H61.875V35.625ZM65.625 30V26.25H73.125V30H65.625Z" fill="black"/>
<path d="M50.2294 95.625H48.7013C49.8919 94.0538 50.625 92.1187 50.625 90C50.625 84.8306 46.4194 80.625 41.25 80.625C36.0806 80.625 31.875 84.8306 31.875 90C31.875 92.1187 32.6081 94.0538 33.7987 95.625H32.2706C23.1769 95.625 14.7356 100.142 9.69 107.709L9.375 108.182V118.125H73.125V108.182L72.81 107.709C67.7644 100.142 59.3231 95.625 50.2294 95.625ZM35.625 90C35.625 86.8987 38.1488 84.375 41.25 84.375C44.3512 84.375 46.875 86.8987 46.875 90C46.875 93.1012 44.3512 95.625 41.25 95.625C38.1488 95.625 35.625 93.1012 35.625 90ZM50.2294 99.375C56.8106 99.375 62.9831 102.133 67.3706 106.875H15.1294C19.5169 102.133 25.6894 99.375 32.2706 99.375H50.2294ZM13.125 114.375V110.625H69.375V114.375H13.125Z" fill="black"/>
<path d="M97.5 33.75C100.601 33.75 103.125 31.2262 103.125 28.125C103.125 25.0237 100.601 22.5 97.5 22.5C94.3987 22.5 91.875 25.0237 91.875 28.125C91.875 31.2262 94.3987 33.75 97.5 33.75ZM97.5 26.25C98.5331 26.25 99.375 27.0919 99.375 28.125C99.375 29.1581 98.5331 30 97.5 30C96.4669 30 95.625 29.1581 95.625 28.125C95.625 27.0919 96.4669 26.25 97.5 26.25Z" fill="black"/>
<path d="M111.842 59.0662C113.364 58.0593 114.375 56.3343 114.375 54.375C114.375 51.2737 111.851 48.75 108.75 48.75H103.125V39.9656C101.959 40.5225 100.699 40.9087 99.375 41.1V48.75H95.625V41.1C94.3013 40.9087 93.0413 40.5225 91.875 39.9656V48.75H86.25C83.1487 48.75 80.625 51.2737 80.625 54.375C80.625 56.3343 81.6356 58.0593 83.1581 59.0662C79.3613 61.7906 76.875 66.2306 76.875 71.25V75C76.875 83.2706 83.6044 90 91.875 90H93.75V78.75H91.875C89.8069 78.75 88.125 77.0681 88.125 75V71.25C88.125 69.1818 89.8069 67.5 91.875 67.5V69.375C91.875 72.4762 94.3988 75 97.5 75C100.601 75 103.125 72.4762 103.125 69.375V67.5C105.193 67.5 106.875 69.1818 106.875 71.25V75C106.875 77.0681 105.193 78.75 103.125 78.75H101.25V90H103.125C111.396 90 118.125 83.2706 118.125 75V71.25C118.125 66.2306 115.639 61.7906 111.842 59.0662ZM86.25 56.25C85.2169 56.25 84.375 55.4081 84.375 54.375C84.375 53.3418 85.2169 52.5 86.25 52.5H108.75C109.783 52.5 110.625 53.3418 110.625 54.375C110.625 55.4081 109.783 56.25 108.75 56.25H103.125H91.875H86.25ZM84.375 71.25V75C84.375 78.4874 86.7694 81.4293 90 82.2618V86.0943C84.6862 85.1981 80.625 80.5649 80.625 75V71.25C80.625 65.0456 85.6706 60 91.875 60V63.75C87.7387 63.75 84.375 67.1137 84.375 71.25ZM97.5 71.25C96.4669 71.25 95.625 70.41 95.625 69.375V60H99.375V69.375C99.375 70.41 98.5331 71.25 97.5 71.25ZM114.375 75C114.375 80.5649 110.314 85.1981 105 86.0943V82.2618C108.231 81.4293 110.625 78.4874 110.625 75V71.25C110.625 67.1137 107.261 63.75 103.125 63.75V60C109.329 60 114.375 65.0456 114.375 71.25V75Z" fill="black"/>
</svg>
