<svg width="118" height="118" viewBox="0 0 118 118" fill="none" xmlns="http://www.w3.org/2000/svg">
<path d="M53.4688 25.8125V40.5625H64.5312V62.6875H94.0312V40.5625V25.8125H53.4688Z" fill="#469AD9"/>
<path d="M40.5625 66.375C43.6121 66.375 46.0938 63.8933 46.0938 60.8438C46.0938 57.7942 43.6121 55.3125 40.5625 55.3125C37.5129 55.3125 35.0312 57.7942 35.0312 60.8438C35.0312 63.8933 37.5129 66.375 40.5625 66.375ZM40.5625 59C41.5802 59 42.4062 59.8278 42.4062 60.8438C42.4062 61.8615 41.5802 62.6875 40.5625 62.6875C39.5448 62.6875 38.7188 61.8615 38.7188 60.8438C38.7188 59.8278 39.5448 59 40.5625 59Z" fill="black"/>
<path d="M31.3438 60.8438C31.3438 57.7942 28.8621 55.3125 25.8125 55.3125C22.7629 55.3125 20.2812 57.7942 20.2812 60.8438C20.2812 63.8933 22.7629 66.375 25.8125 66.375C28.8621 66.375 31.3438 63.8933 31.3438 60.8438ZM25.8125 62.6875C24.7948 62.6875 23.9688 61.8615 23.9688 60.8438C23.9688 59.8278 24.7948 59 25.8125 59C26.8302 59 27.6562 59.8278 27.6562 60.8438C27.6562 61.8615 26.8302 62.6875 25.8125 62.6875Z" fill="black"/>
<path d="M110.625 1.84375H36.875C33.8254 1.84375 31.3438 4.32544 31.3438 7.375V38.905C27.5917 39.6701 24.6952 42.7307 24.1089 46.5436C20.9303 47.3327 18.1536 49.1452 16.1605 51.625H14.75C9.66678 51.625 5.53125 55.7605 5.53125 60.8438C5.53125 65.927 9.66678 70.0625 14.75 70.0625H16.1605C18.1241 72.5055 20.8473 74.3013 23.9688 75.1088V79.2812H19.9881L19.6617 79.4085C18.4725 79.8768 17.4327 80.4465 16.5089 81.0844C14.9381 79.9339 13.0335 79.2812 11.0625 79.2812C5.97928 79.2812 1.84375 83.4168 1.84375 88.5C1.84375 91.4998 3.30584 94.1437 5.53125 95.8271V116.156H60.8438V95.8271C62.6008 94.4977 63.8896 92.5784 64.345 90.3438H110.625C113.675 90.3438 116.156 87.8621 116.156 84.8125V7.375C116.156 4.32544 113.675 1.84375 110.625 1.84375ZM36.875 5.53125H110.625C111.643 5.53125 112.469 6.35909 112.469 7.375V16.5938H35.0312V7.375C35.0312 6.35909 35.8573 5.53125 36.875 5.53125ZM33.1875 42.4062C35.5881 42.4062 37.6162 43.9532 38.3795 46.0938H27.9973C28.7588 43.9532 30.7869 42.4062 33.1875 42.4062ZM9.21875 60.8438C9.21875 58.0634 11.2874 55.779 13.9627 55.3918C13.2879 57.0807 12.9062 58.917 12.9062 60.8438C12.9062 62.7705 13.2879 64.6068 13.9627 66.2957C11.2874 65.9085 9.21875 63.6241 9.21875 60.8438ZM16.5938 60.8438C16.5938 54.7428 21.5553 49.7812 27.6562 49.7812H38.7188C44.8197 49.7812 49.7812 54.7428 49.7812 60.8438C49.7812 66.9447 44.8197 71.9062 38.7188 71.9062H27.6562C21.5553 71.9062 16.5938 66.9447 16.5938 60.8438ZM52.4123 55.3918C55.0876 55.779 57.1562 58.0634 57.1562 60.8438C57.1562 63.6241 55.0876 65.9085 52.4123 66.2957C53.0871 64.6068 53.4688 62.7705 53.4688 60.8438C53.4688 58.917 53.0871 57.0807 52.4123 55.3918ZM38.7188 75.5938V80.3617L38.1785 80.9019C36.8639 82.2165 35.046 82.9688 33.1875 82.9688C31.329 82.9688 29.5111 82.2165 28.1965 80.9019L27.6562 80.3617V75.5938H38.7188ZM20.6998 82.9688H25.0492L25.5894 83.509C27.5899 85.5094 30.3592 86.6562 33.1875 86.6562C36.0158 86.6562 38.7851 85.5094 40.7856 83.509L41.3258 82.9688H45.6752C50.6128 85.0632 52.1486 89.3868 51.4535 92.8642L48.2178 112.469H18.1572L14.9104 92.8033C14.2264 89.385 15.7622 85.0632 20.6998 82.9688ZM11.0625 82.9688C12.012 82.9688 12.9044 83.2287 13.7083 83.6694C11.3188 86.6618 10.6569 90.3364 11.2837 93.4652L11.3723 94.0054C11.269 94.011 11.1676 94.0312 11.0625 94.0312C8.01294 94.0312 5.53125 91.5496 5.53125 88.5C5.53125 85.4504 8.01294 82.9688 11.0625 82.9688ZM9.21875 97.5325C9.81428 97.6542 10.4319 97.7188 11.0625 97.7188C11.3704 97.7188 11.6709 97.6727 11.9733 97.6432L14.4218 112.469H9.21875V97.5325ZM57.1562 112.469H51.9532L54.3998 97.6432C54.7041 97.6727 55.0046 97.7188 55.3125 97.7188C55.9431 97.7188 56.5607 97.6542 57.1562 97.5325V112.469ZM55.3125 94.0312C55.2074 94.0312 55.106 94.011 55.0009 94.0054L55.0802 93.5279C55.7144 90.3603 55.0562 86.671 52.6649 83.6731C53.4688 83.2287 54.363 82.9688 55.3125 82.9688C58.3621 82.9688 60.8438 85.4504 60.8438 88.5C60.8438 91.5496 58.3621 94.0312 55.3125 94.0312ZM110.625 86.6562H64.345C63.4877 82.4543 59.7652 79.2812 55.3125 79.2812C53.3434 79.2812 51.4369 79.9339 49.8661 81.0863C48.9423 80.4483 47.9025 79.8768 46.7132 79.4103L46.3869 79.2812H42.4062V75.1088C45.5277 74.3013 48.2509 72.5055 50.2145 70.0625H51.625C56.7082 70.0625 60.8438 65.927 60.8438 60.8438C60.8438 55.7605 56.7082 51.625 51.625 51.625H50.2145C48.2214 49.1452 45.4448 47.3327 42.2643 46.5436C41.678 42.7307 38.7814 39.6701 35.0294 38.905V20.2812H112.467V84.8125C112.469 85.8303 111.643 86.6562 110.625 86.6562Z" fill="black"/>
<path d="M46.0938 9.21875H49.7812V12.9062H46.0938V9.21875Z" fill="black"/>
<path d="M53.4688 9.21875H57.1562V12.9062H53.4688V9.21875Z" fill="black"/>
<path d="M38.7188 9.21875H42.4062V12.9062H38.7188V9.21875Z" fill="black"/>
<path d="M42.4062 29.5C42.4062 30.5159 41.5803 31.3438 40.5625 31.3438H38.7188V35.0312H40.5625C41.5803 35.0312 42.4062 35.8591 42.4062 36.875C42.4062 39.9246 44.8879 42.4062 47.9375 42.4062H49.7812V38.7188H47.9375C46.9198 38.7188 46.0938 37.8909 46.0938 36.875C46.0938 35.4535 45.5388 34.1684 44.6556 33.1875C45.5406 32.2066 46.0938 30.9215 46.0938 29.5C46.0938 28.4841 46.9198 27.6562 47.9375 27.6562H49.7812V23.9688H47.9375C44.8879 23.9688 42.4062 26.4504 42.4062 29.5Z" fill="black"/>
<path d="M105.094 51.625C105.094 48.5754 102.612 46.0938 99.5625 46.0938H97.7188V49.7812H99.5625C100.58 49.7812 101.406 50.6091 101.406 51.625C101.406 53.0465 101.961 54.3316 102.844 55.3125C101.959 56.2934 101.406 57.5785 101.406 59C101.406 60.0159 100.58 60.8438 99.5625 60.8438H97.7188V64.5312H99.5625C102.612 64.5312 105.094 62.0496 105.094 59C105.094 57.9841 105.92 57.1562 106.938 57.1562H108.781V53.4688H106.938C105.92 53.4688 105.094 52.6409 105.094 51.625Z" fill="black"/>
<path d="M53.4688 23.9688H94.0312V27.6562H53.4688V23.9688Z" fill="black"/>
<path d="M53.4688 31.3438H94.0312V35.0312H53.4688V31.3438Z" fill="black"/>
<path d="M53.4688 38.7188H94.0312V42.4062H53.4688V38.7188Z" fill="black"/>
<path d="M64.5312 46.0938H94.0312V49.7812H64.5312V46.0938Z" fill="black"/>
<path d="M64.5312 53.4688H94.0312V57.1562H64.5312V53.4688Z" fill="black"/>
<path d="M64.5312 60.8438H94.0312V64.5312H64.5312V60.8438Z" fill="black"/>
<path d="M83.0334 82.3042L88.5627 67.5594L92.016 68.8543L86.4867 83.5992L83.0334 82.3042Z" fill="black"/>
<path d="M92.7278 71.3661L96.9555 75.5938L92.7278 79.8215L95.3348 82.4286L102.17 75.5938L95.3348 68.759L92.7278 71.3661Z" fill="black"/>
<path d="M77.9776 68.759L71.1428 75.5938L77.9776 82.4286L80.5847 79.8215L76.357 75.5938L80.5847 71.3661L77.9776 68.759Z" fill="black"/>
<path d="M46.0938 108.781H20.2812V90.3438H46.0938V108.781Z" fill="#469AD9"/>
</svg>
