<svg width="125" height="125" viewBox="0 0 125 125" fill="none" xmlns="http://www.w3.org/2000/svg">
<path d="M68.4531 57.9935V43.192L63.0278 41.4537C62.5337 39.9198 61.9225 38.4375 61.2042 37.0305L63.8077 31.9724L53.3421 21.5068L48.2839 24.1103C46.875 23.3919 45.3947 22.7807 43.8608 22.2866L42.1185 16.8594H27.317L25.5787 22.2847C24.0448 22.7788 22.5625 23.39 21.1555 24.1083L16.0974 21.5048L5.63178 31.9704L8.23528 37.0286C7.51694 38.4375 6.90575 39.9178 6.41164 41.4517L0.984375 43.194V57.9955L6.40966 59.7338C6.90377 61.2697 7.51495 62.752 8.2333 64.1569L5.6298 69.2151L16.0954 79.6787L18.5183 78.4325C18.298 77.4741 17.9667 76.5434 17.5241 75.6584L15.2143 71.0328C14.9921 70.5863 14.875 70.0942 14.875 69.5961C14.875 67.8221 16.3137 66.3854 18.0857 66.3854H18.2762C20.338 66.3854 22.2827 66.8875 23.9932 67.7745L24.1361 67.3835C18.5719 63.8692 14.875 57.6621 14.875 50.5937C14.875 39.634 23.759 30.75 34.7188 30.75C45.6785 30.75 54.5625 39.634 54.5625 50.5937C54.5625 55.0606 53.0861 59.1841 50.5957 62.5C52.7865 62.5 54.5625 64.278 54.5625 66.4687V70.2986L54.5764 70.2946C54.6538 68.1713 56.3881 66.4687 58.5312 66.4687C60.0632 66.4687 61.3768 67.3458 62.0376 68.6158L63.3473 68.3222L61.2042 64.1569C61.9225 62.75 62.5337 61.2697 63.0278 59.7338L68.4531 57.9935Z" fill="#469AD9"/>
<path d="M98.2188 116.078H74.4062V88.2969H98.2188V116.078Z" fill="#469AD9"/>
<path d="M124.016 51.5561L108.141 40.2174L102.305 44.3866C99.6038 40.2591 96.3118 36.6158 92.4799 33.5062C97.3139 30.1646 100.203 24.7393 100.203 18.8437C100.203 13.7617 98.0283 8.90595 94.2381 5.5206C90.4479 2.13328 85.3501 0.5299 80.2701 1.09942C72.2314 2.00826 65.6552 8.48725 64.6332 16.5041C64.3534 18.6929 64.5122 20.838 64.9844 22.8859C61.7201 22.7251 58.432 22.8998 55.2253 23.3919L58.7932 26.9598C61.3411 26.7475 63.9188 26.7514 66.4648 26.9737C67.8777 29.73 69.989 32.135 72.7374 33.8892C73.7673 34.548 74.4062 35.8161 74.4062 37.1992V40.6718C74.4062 45.0494 77.9662 48.6093 82.3438 48.6093C86.7213 48.6093 90.2812 45.0494 90.2812 40.6718V37.1178C90.2812 37.0265 90.307 36.9432 90.313 36.8519C93.7281 39.6777 96.661 42.9737 99.076 46.6924L92.2656 51.5561V56.5468H96.2344V72.4218H106.075C105.759 79.5537 103.765 86.3383 100.203 92.4124V86.3125C100.203 83.0303 97.5322 80.3593 94.25 80.3593H78.375C75.0928 80.3593 72.4219 83.0303 72.4219 86.3125V112.927C69.1715 113.679 65.8258 114.058 62.496 114.06C62.4821 111.49 60.8252 109.323 58.5312 108.506V104.833L61.7062 100.6C63.4981 98.2128 64.4844 95.2541 64.4844 92.2656V70.4375C64.4844 67.1553 61.8134 64.4843 58.5312 64.4843C57.7474 64.4843 57.0033 64.6451 56.3167 64.9209C55.9139 63.4326 54.9574 62.1825 53.6715 61.3986C55.5487 58.1204 56.5469 54.4394 56.5469 50.5937C56.5469 38.5585 46.754 28.7656 34.7188 28.7656C22.6835 28.7656 12.8906 38.5585 12.8906 50.5937C12.8906 55.7769 14.7381 60.6208 17.8535 64.4248C15.0992 64.5498 12.8906 66.812 12.8906 69.5961C12.8906 70.3978 13.0811 71.2034 13.4383 71.9198L15.7501 76.5454C16.4764 77.9959 16.8594 79.6172 16.8594 81.2364V89.3882C16.8594 91.5214 17.3614 93.6566 18.308 95.5636L22.8125 104.636V108.506C20.5086 109.327 18.8438 111.51 18.8438 114.094V124.016H62.5V118.062C65.8457 118.062 69.1695 117.699 72.4219 117.011V118.062C72.4219 121.345 75.0928 124.016 78.375 124.016H94.25C97.5322 124.016 100.203 121.345 100.203 118.062V99.4986C106.277 91.6346 109.643 82.3259 110.044 72.4218H120.047V56.5468H124.016V51.5561ZM74.8746 30.5456C70.2926 27.6186 67.8796 22.4314 68.5702 17.0062C69.362 10.7812 74.4717 5.75079 80.7146 5.04634C81.2662 4.98284 81.8159 4.95109 82.3596 4.95109C85.7827 4.95109 89.0132 6.17545 91.5909 8.47931C94.5417 11.1146 96.2344 14.8928 96.2344 18.8437C96.2344 23.5864 93.8452 27.954 89.8467 30.5257C87.7472 31.8751 86.4653 34.1631 86.3383 36.7031H84.3281V24.4317C86.632 23.6102 88.2969 21.4274 88.2969 18.8437C88.2969 15.5615 85.6259 12.8906 82.3438 12.8906C79.0616 12.8906 76.3906 15.5615 76.3906 18.8437C76.3906 21.4274 78.0555 23.6102 80.3594 24.4317V36.7031H78.3452C78.1984 34.1393 76.9343 31.8632 74.8746 30.5456ZM80.3594 18.8437C80.3594 17.7483 81.2484 16.8593 82.3438 16.8593C83.4391 16.8593 84.3281 17.7483 84.3281 18.8437C84.3281 19.9391 83.4391 20.8281 82.3438 20.8281C81.2484 20.8281 80.3594 19.9391 80.3594 18.8437ZM82.3438 44.6406C80.155 44.6406 78.375 42.8606 78.375 40.6718H86.3125C86.3125 42.8606 84.5325 44.6406 82.3438 44.6406ZM34.7188 32.7343C44.5672 32.7343 52.5781 40.7453 52.5781 50.5937C52.5781 54.2172 51.5006 57.664 49.4765 60.6287C48.3891 60.837 47.4168 61.349 46.625 62.0634C45.5693 61.1109 44.1862 60.5156 42.6562 60.5156C41.9578 60.5156 41.295 60.6585 40.6719 60.8807V42.6562C40.6719 39.374 38.0009 36.7031 34.7188 36.7031C31.4366 36.7031 28.7656 39.374 28.7656 42.6562V67.4192C21.7449 64.9328 16.8594 58.2177 16.8594 50.5937C16.8594 40.7453 24.8703 32.7343 34.7188 32.7343ZM21.862 93.7995C21.1873 92.4382 20.8281 90.9122 20.8281 89.3902V81.2384C20.8281 79.006 20.2983 76.7696 19.3002 74.7713L16.9884 70.1458C16.903 69.9771 16.8594 69.7866 16.8594 69.5961C16.8594 68.9194 17.409 68.3697 18.2762 68.3697C24.0607 68.3717 28.7656 73.0787 28.7656 78.8611V82.2604V86.2291H32.7344V82.2604V78.8611V42.6562C32.7344 41.5608 33.6234 40.6718 34.7188 40.6718C35.8141 40.6718 36.7031 41.5608 36.7031 42.6562V66.4687V74.4062H40.6719V66.4687C40.6719 65.3733 41.5609 64.4843 42.6562 64.4843C43.7516 64.4843 44.6406 65.3733 44.6406 66.4687V74.4062H48.6094V66.4687C48.6094 65.3733 49.4984 64.4843 50.5938 64.4843C51.6891 64.4843 52.5781 65.3733 52.5781 66.4687V70.4375V74.4062H56.5469V70.4375C56.5469 69.3421 57.4359 68.4531 58.5312 68.4531C59.6266 68.4531 60.5156 69.3421 60.5156 70.4375V92.2656C60.5156 94.3988 59.8112 96.5141 58.5312 98.2187L54.5625 103.511V108.141H26.7812V103.707L21.862 93.7995ZM58.5312 120.047H22.8125V114.094C22.8125 112.998 23.7015 112.109 24.7969 112.109H56.5469C57.6423 112.109 58.5312 112.998 58.5312 114.094V120.047ZM96.2344 118.062C96.2344 119.158 95.3454 120.047 94.25 120.047H78.375C77.2796 120.047 76.3906 119.158 76.3906 118.062V86.3125C76.3906 85.2171 77.2796 84.3281 78.375 84.3281H94.25C95.3454 84.3281 96.2344 85.2171 96.2344 86.3125V118.062ZM108.141 45.095L118.616 52.5781H97.6651L108.141 45.095ZM116.078 68.4531H100.203V56.5468H116.078V68.4531Z" fill="black"/>
<path d="M88.2969 68.4531H92.2656V72.4219H88.2969V68.4531Z" fill="black"/>
<path d="M80.3594 68.4531H84.3281V72.4219H80.3594V68.4531Z" fill="black"/>
<path d="M72.4219 68.4531H76.3906V72.4219H72.4219V68.4531Z" fill="black"/>
</svg>
