<svg width="96" height="34" viewBox="0 0 96 34" fill="none" xmlns="http://www.w3.org/2000/svg">
<path d="M0 8.89859C0 4.39366 3.65197 0.741699 8.15689 0.741699H50.5727C55.0777 0.741699 58.7296 4.39366 58.7296 8.89859V25.2124C58.7296 29.7173 55.0777 33.3693 50.5727 33.3693H8.15689C3.65197 33.3693 0 29.7173 0 25.2124V8.89859Z" fill="white"/>
<path d="M50.7939 9.50842L50.4105 9.45968C50.3789 9.36241 50.3399 9.26861 50.2944 9.17949L50.5312 8.87463C50.627 8.75126 50.6158 8.57711 50.5063 8.47107L50.1851 8.14989C50.0781 8.03936 49.9039 8.02835 49.7803 8.12399L49.4758 8.36075C49.3867 8.31527 49.2929 8.27632 49.1954 8.24471L49.1467 7.86195C49.1284 7.7084 48.998 7.59277 48.8437 7.59277H48.3869C48.2325 7.59277 48.1022 7.7084 48.0838 7.86134L48.0351 8.24471C47.9376 8.27632 47.8438 8.31507 47.7547 8.36075L47.45 8.12399C47.3268 8.02835 47.1527 8.03936 47.0464 8.14887L46.7252 8.46984C46.6147 8.57711 46.6035 8.75126 46.6993 8.87483L46.9361 9.17949C46.8904 9.26861 46.8517 9.36241 46.8201 9.45968L46.4373 9.50842C46.2837 9.52677 46.1681 9.65708 46.1681 9.81145V10.2682C46.1681 10.4226 46.2837 10.5529 46.4367 10.5713L46.8201 10.62C46.8517 10.7173 46.8906 10.8111 46.9361 10.9002L46.6993 11.2051C46.6035 11.3284 46.6147 11.5026 46.7242 11.6086L47.0454 11.9298C47.1527 12.0401 47.3266 12.0511 47.4502 11.9555L47.7549 11.7187C47.844 11.7644 47.9378 11.8034 48.0351 11.8348L48.0838 12.2173C48.1022 12.3713 48.2325 12.4869 48.3869 12.4869H48.8437C48.998 12.4869 49.1284 12.3713 49.1467 12.2183L49.1954 11.835C49.2927 11.8034 49.3865 11.7644 49.4756 11.7189L49.7805 11.9557C49.9039 12.0515 50.0781 12.0403 50.1841 11.9308L50.5053 11.6096C50.6158 11.5024 50.627 11.3284 50.5312 11.2048L50.2944 10.9002C50.3401 10.8111 50.3791 10.7173 50.4105 10.62L50.793 10.5713C50.9466 10.5529 51.0622 10.4226 51.0622 10.2682V9.81145C51.0624 9.65708 50.9468 9.52677 50.7939 9.50842ZM48.6153 11.0595C48.053 11.0595 47.5956 10.6021 47.5956 10.0398C47.5956 9.47763 48.053 9.02023 48.6153 9.02023C49.1775 9.02023 49.6349 9.47763 49.6349 10.0398C49.6349 10.6021 49.1775 11.0595 48.6153 11.0595Z" fill="#477D9B"/>
<path d="M22.9594 8.94106C23.1604 9.17859 23.2609 9.42525 23.2609 9.68105C23.2609 9.79068 23.2518 9.90944 23.2335 10.0373C23.2335 10.147 23.2244 10.2475 23.2061 10.3388C23.1513 10.5398 23.0325 10.7317 22.8498 10.9144C22.7036 11.024 22.5027 11.1062 22.2469 11.161C22.119 11.1976 21.9911 11.225 21.8632 11.2433C21.7353 11.2615 21.5982 11.2889 21.452 11.3255C21.3241 11.3438 21.1962 11.3529 21.0683 11.3529C20.9404 11.3529 20.8034 11.3529 20.6572 11.3529H19.2595C18.9306 11.3712 18.6017 11.3803 18.2728 11.3803C17.9622 11.3803 17.6516 11.3803 17.341 11.3803C17.3592 11.9467 17.3684 12.5588 17.3684 13.2166C17.3684 13.8561 17.3592 14.6052 17.341 15.464C17.341 16.3227 17.3318 17.3185 17.3136 18.4513C17.3136 19.5842 17.3136 20.8997 17.3136 22.398V24.4809C17.3136 24.6636 17.3227 24.8007 17.341 24.892C17.341 24.9651 17.341 25.0382 17.341 25.1113C17.341 25.1661 17.3318 25.2392 17.3136 25.3305C17.277 25.495 17.2496 25.6868 17.2313 25.9061C17.2313 25.9974 17.2222 26.0888 17.2039 26.1802C17.1857 26.2532 17.1583 26.3355 17.1217 26.4268C17.0486 26.4999 17.0121 26.5547 17.0121 26.5913L16.9299 26.7557C16.8385 26.9384 16.6649 27.112 16.4091 27.2764C16.0072 27.4774 15.5595 27.5231 15.0662 27.4135C14.7556 27.3769 14.518 27.2947 14.3536 27.1668C14.1892 27.0024 14.0704 26.8379 13.9973 26.6735C13.8877 26.4725 13.8237 26.2807 13.8054 26.0979C13.7506 25.9335 13.7232 25.7599 13.7232 25.5772V11.4899C13.6136 11.4899 13.3852 11.4899 13.038 11.4899C12.6909 11.4899 12.3163 11.4899 11.9144 11.4899C11.5307 11.4717 11.1652 11.4534 10.8181 11.4351C10.4709 11.4168 10.2334 11.3986 10.1055 11.3803C9.99585 11.362 9.82228 11.3346 9.58475 11.2981C9.36549 11.2615 9.18278 11.225 9.0366 11.1884C8.6529 11.0788 8.35142 10.9052 8.13217 10.6677C7.93118 10.4302 7.83069 10.1652 7.83069 9.8729C7.83069 9.76327 7.83069 9.65364 7.83069 9.54402C7.83069 9.43439 7.84896 9.33389 7.8855 9.24254C7.94032 9.02328 8.08649 8.84056 8.32402 8.69439C8.3971 8.63958 8.50673 8.57563 8.6529 8.50254C8.81735 8.41119 8.97265 8.34724 9.11883 8.31069C9.33808 8.23761 9.61215 8.18279 9.94104 8.14625C10.0872 8.12798 10.2334 8.11884 10.3796 8.11884C10.5257 8.11884 10.681 8.11884 10.8455 8.11884C11.485 8.11884 12.0879 8.11884 12.6543 8.11884C13.239 8.11884 13.8511 8.10971 14.4906 8.09144C15.5504 8.07316 16.601 8.07316 17.6425 8.09144C18.7022 8.09144 19.7528 8.10971 20.7943 8.14625C21.0318 8.16452 21.2602 8.19193 21.4795 8.22847C21.6987 8.26501 21.918 8.32896 22.1372 8.42032C22.3017 8.47514 22.457 8.54822 22.6032 8.63958C22.7493 8.71266 22.8681 8.81316 22.9594 8.94106Z" fill="#477D9B"/>
<path d="M42.8729 9.40698C42.9642 9.82722 42.9734 10.2566 42.9003 10.6951C42.8455 11.1154 42.7633 11.4991 42.6536 11.8462C42.4344 12.5588 42.1786 13.3536 41.8862 14.2306C41.5939 15.1077 41.3015 15.9847 41.0092 16.8617C40.7169 17.7388 40.4337 18.5701 40.1596 19.3558C39.8855 20.1232 39.6571 20.7627 39.4744 21.2743C39.2917 21.7493 39.0998 22.2883 38.8988 22.8913C38.6979 23.4943 38.4512 24.0881 38.1589 24.6728C37.8848 25.2392 37.5559 25.7599 37.1722 26.235C36.8068 26.71 36.3591 27.0572 35.8292 27.2764C35.2994 27.4957 34.8152 27.5505 34.3767 27.4409C33.9382 27.313 33.5453 27.0937 33.1982 26.7831C32.851 26.4542 32.5312 26.0523 32.2389 25.5772C31.9648 25.0839 31.7182 24.5814 31.4989 24.0698C31.2797 23.5582 31.0787 23.0649 30.896 22.5898C30.7132 22.0965 30.5488 21.6763 30.4026 21.3291C29.8362 20.0866 29.3246 18.7711 28.8678 17.3825C28.411 15.9938 27.9451 14.6692 27.4701 13.4084C27.3422 13.043 27.196 12.6045 27.0315 12.0929C26.8671 11.563 26.7575 11.0423 26.7027 10.5307C26.6661 10.0008 26.7301 9.52574 26.8945 9.1055C27.059 8.66699 27.4061 8.36551 27.936 8.20106C28.0456 8.16452 28.1552 8.13711 28.2649 8.11884C28.3928 8.0823 28.5115 8.05489 28.6212 8.03662C28.7491 8.03662 28.8678 8.04576 28.9775 8.06403C29.0871 8.0823 29.2058 8.12798 29.3337 8.20106C29.4251 8.23761 29.5165 8.28329 29.6078 8.3381C29.6992 8.37464 29.7814 8.42946 29.8545 8.50254C29.9276 8.5939 29.9915 8.68526 30.0463 8.77661C30.1194 8.86797 30.1925 8.95933 30.2656 9.05069C30.3204 9.17859 30.3661 9.29735 30.4026 9.40698C30.4574 9.49834 30.5031 9.58969 30.5397 9.68105C30.5762 9.80895 30.6219 9.92772 30.6767 10.0373C30.7315 10.1287 30.7772 10.2201 30.8137 10.3114L30.9782 10.7773L34.9248 22.0417L38.8166 10.8047L39.0085 10.3388C39.045 10.2475 39.0816 10.1561 39.1181 10.0648C39.1546 9.95512 39.1912 9.83636 39.2277 9.70846C39.2643 9.6171 39.3008 9.52574 39.3374 9.43439C39.3922 9.32476 39.4561 9.21513 39.5292 9.1055C39.584 9.01414 39.6388 8.92279 39.6937 8.83143C39.7667 8.7218 39.8398 8.62131 39.9129 8.52995C39.9677 8.45686 40.0317 8.39291 40.1048 8.3381C40.1961 8.28329 40.2783 8.23761 40.3514 8.20106C40.4976 8.12798 40.6255 8.0823 40.7351 8.06403C40.863 8.04576 40.9727 8.03662 41.064 8.03662C41.1736 8.05489 41.2833 8.0823 41.3929 8.11884C41.5208 8.13711 41.6396 8.16452 41.7492 8.20106C42.0964 8.29242 42.3521 8.44773 42.5166 8.66699C42.6993 8.88624 42.8181 9.13291 42.8729 9.40698Z" fill="#477D9B"/>
<path d="M46.6715 25.4528L46.6996 23.9116L46.7276 21.0436C46.7464 20.6274 46.7557 20.1982 46.7557 19.756C46.7557 19.3137 46.7557 18.8585 46.7557 18.3903C46.7557 17.922 46.7557 17.5058 46.7557 17.1417C46.7557 16.7775 46.7744 16.3678 46.8118 15.9125V15.8345C46.8306 15.7044 46.8399 15.5744 46.8399 15.4443C46.8586 15.3012 46.868 15.1582 46.868 15.0151C46.8867 14.781 46.9896 14.5273 47.1767 14.2542C47.3077 14.0721 47.5042 13.916 47.7661 13.786C48.0655 13.6819 48.3555 13.6299 48.6362 13.6299C48.7859 13.6299 48.9168 13.6364 49.0291 13.6494C49.1601 13.6494 49.2817 13.6559 49.394 13.6689C49.6372 13.6949 49.8524 13.773 50.0395 13.903C50.1518 13.9681 50.2547 14.0721 50.3482 14.2152C50.3857 14.2932 50.4137 14.3713 50.4324 14.4493C50.4699 14.5143 50.4979 14.5859 50.5166 14.6639C50.5354 14.7549 50.5447 14.8395 50.5447 14.9175C50.5634 14.9956 50.5728 15.0736 50.5728 15.1516C50.5728 15.2427 50.5634 15.3272 50.5447 15.4053C50.5447 15.4703 50.5447 15.5418 50.5447 15.6199V15.9516L50.3763 26.0771V26.2722C50.3763 26.3113 50.367 26.3633 50.3482 26.4283C50.3482 26.4804 50.3389 26.5454 50.3202 26.6234C50.2828 26.6885 50.2453 26.76 50.2079 26.838C50.1892 26.9031 50.1611 26.9746 50.1237 27.0526C50.0676 27.1177 50.0021 27.1827 49.9272 27.2477C49.8711 27.2998 49.7963 27.3518 49.7027 27.4038C49.553 27.5079 49.3098 27.5794 48.973 27.6184C48.4678 27.6965 47.9906 27.6639 47.5416 27.5209C47.317 27.4168 47.158 27.2868 47.0644 27.1307C47.0083 27.0917 46.9802 27.0526 46.9802 27.0136C46.9615 26.9876 46.9428 26.9681 46.9241 26.9551C46.9054 26.9421 46.8867 26.9226 46.868 26.8966C46.8306 26.8315 46.8025 26.7665 46.7838 26.7015C46.7651 26.6234 46.7557 26.5454 46.7557 26.4673C46.737 26.4023 46.7183 26.3373 46.6996 26.2722C46.6996 26.2072 46.6902 26.1422 46.6715 26.0771C46.6528 25.9731 46.6528 25.8625 46.6715 25.7455V25.4528Z" fill="#477D9B"/>
<path d="M78.1873 25.569C78.3422 25.8594 78.3519 26.1498 78.2164 26.4402C78.1196 26.7499 77.955 26.9822 77.7227 27.1371C77.6066 27.2339 77.5001 27.321 77.4033 27.3984C77.3065 27.4565 77.2 27.5049 77.0839 27.5436C76.8709 27.6598 76.6193 27.6985 76.3289 27.6598C76.2127 27.6598 76.1062 27.6404 76.0095 27.6017C75.9127 27.563 75.8159 27.5146 75.7191 27.4565C75.6223 27.3984 75.5158 27.3404 75.3996 27.2823C75.3028 27.2049 75.2061 27.1274 75.1093 27.05C74.9931 26.9532 74.8866 26.8661 74.7898 26.7886C74.693 26.7112 74.6059 26.6241 74.5285 26.5273C74.4317 26.4305 74.3446 26.3337 74.2671 26.2369C74.1897 26.1401 74.1123 26.053 74.0348 25.9756L73.6864 25.5981L68.111 19.7613L68.1981 25.5981V25.8594C68.1981 25.9368 68.1884 26.024 68.169 26.1207C68.1497 26.1982 68.1303 26.2853 68.111 26.3821C68.0529 26.6338 67.9851 26.8564 67.9077 27.05C67.869 27.1661 67.8109 27.2629 67.7335 27.3404C67.6754 27.4178 67.6076 27.4952 67.5302 27.5727C67.3173 27.7663 67.0656 27.8727 66.7752 27.8921C66.4848 27.9889 66.2138 28.0179 65.9621 27.9792C65.7298 27.9599 65.4878 27.8921 65.2362 27.7759C65.0426 27.6598 64.8683 27.4662 64.7135 27.1952C64.6747 27.1177 64.6457 27.0693 64.6263 27.05C64.6263 27.0306 64.607 26.9629 64.5683 26.8467C64.4521 26.6531 64.394 26.4595 64.394 26.2659C64.3747 26.1498 64.3553 26.0433 64.336 25.9465C64.336 25.8497 64.3263 25.7432 64.3069 25.6271C64.2876 25.5497 64.2779 25.4722 64.2779 25.3948C64.2779 25.3173 64.2779 25.2399 64.2779 25.1625C64.2972 25.0657 64.3069 24.9882 64.3069 24.9302C64.3069 24.8527 64.3069 24.7656 64.3069 24.6688L64.2779 22.3748L64.2488 18.1061C64.2488 16.8671 64.2198 15.5314 64.1617 14.0988C64.1424 13.4019 64.1327 12.7824 64.1327 12.2403C64.1327 11.6983 64.1424 11.0885 64.1617 10.4109V10.2947C64.2004 10.0818 64.2198 9.87852 64.2198 9.68493C64.2198 9.47198 64.2295 9.26871 64.2488 9.07512C64.2488 8.68794 64.336 8.30076 64.5102 7.91358C64.6263 7.62319 64.8296 7.39089 65.12 7.21665C65.2749 7.11986 65.4201 7.06178 65.5556 7.04242C65.7105 7.00371 65.875 6.96499 66.0492 6.92627C66.1847 6.92627 66.3106 6.93595 66.4267 6.95531C66.5622 6.97467 66.6881 6.99403 66.8042 7.01339C67.0559 7.0521 67.2882 7.15858 67.5012 7.33281C67.5592 7.39089 67.6076 7.45864 67.6464 7.53608C67.7044 7.61352 67.7528 7.71031 67.7915 7.82646C67.8883 7.98134 67.9561 8.20397 67.9948 8.49435C68.0142 8.61051 68.0239 8.72666 68.0239 8.84281C68.0432 8.95897 68.0529 9.0848 68.0529 9.22031V10.4109L68.0819 13.9536C68.3917 13.6826 68.6917 13.4019 68.9821 13.1115C69.2919 12.8211 69.5919 12.5113 69.8823 12.1822C70.405 11.6402 70.918 11.1175 71.4214 10.6142C71.9441 10.0915 72.4668 9.57846 72.9894 9.07512L73.0766 8.98801C73.2314 8.83313 73.3863 8.68794 73.5412 8.55243C73.7154 8.39756 73.88 8.25236 74.0348 8.11685C74.3252 7.78775 74.6834 7.55544 75.1093 7.41993C75.3803 7.24569 75.6997 7.17794 76.0675 7.21665C76.2418 7.23601 76.3966 7.27473 76.5321 7.33281C76.687 7.39089 76.8322 7.46832 76.9677 7.56512C77.0645 7.66191 77.1613 7.74903 77.2581 7.82646C77.3549 7.88454 77.4323 7.96198 77.4904 8.05877C77.6453 8.19429 77.7421 8.39756 77.7808 8.66858C77.7808 8.88153 77.7421 9.07512 77.6647 9.24935C77.6066 9.34615 77.5485 9.44294 77.4904 9.53974C77.4323 9.63653 77.3646 9.73333 77.2871 9.83012C77.1904 9.94628 77.1032 10.0528 77.0258 10.1495C76.9484 10.2463 76.8613 10.3431 76.7645 10.4399C76.687 10.5367 76.5999 10.6238 76.5031 10.7013C76.4257 10.7787 76.3482 10.8658 76.2708 10.9626L75.8933 11.3401L70.4631 16.8865C70.7535 17.1769 71.0535 17.4866 71.3633 17.8157C71.6924 18.1255 72.0021 18.4352 72.2925 18.745C72.5829 19.0353 72.8539 19.316 73.1056 19.5871C73.3573 19.8387 73.5702 20.0517 73.7444 20.2259C74.2671 20.768 74.7705 21.31 75.2545 21.8521C75.7384 22.3748 76.2127 22.9071 76.6773 23.4492L76.7645 23.5363C76.9193 23.6912 77.0645 23.8557 77.2 24.03C77.3355 24.1848 77.4614 24.3397 77.5775 24.4946C77.8679 24.8237 78.0712 25.1818 78.1873 25.569Z" fill="white"/>
<path d="M94.8362 11.3692C94.5652 11.7757 94.2845 12.1726 93.9941 12.5597C93.7037 12.9469 93.423 13.3341 93.1519 13.7213C91.9323 15.4636 90.7127 17.1962 89.4931 18.9192C88.2928 20.6421 87.0926 22.3845 85.8923 24.1461C86.1827 24.1461 86.4053 24.1461 86.5602 24.1461C86.7151 24.1461 86.8409 24.1461 86.9377 24.1461C87.0539 24.1461 87.1797 24.1461 87.3152 24.1461C87.4507 24.1461 87.654 24.1558 87.925 24.1752C88.196 24.1752 88.5639 24.1752 89.0285 24.1752C89.5125 24.1752 90.1513 24.1752 90.945 24.1752C91.4484 24.1752 91.942 24.1752 92.426 24.1752C92.9293 24.1752 93.4327 24.1945 93.936 24.2332C94.0328 24.2526 94.1393 24.272 94.2554 24.2913C94.3716 24.2913 94.478 24.3107 94.5748 24.3494L94.7491 24.4365C94.7491 24.4365 94.8071 24.4559 94.9233 24.4946C95.1556 24.6301 95.3492 24.785 95.5041 24.9592C95.7751 25.3464 95.8525 25.782 95.7364 26.2659C95.717 26.4015 95.6686 26.5273 95.5912 26.6434C95.5331 26.7402 95.4654 26.8274 95.3879 26.9048C95.233 27.0597 95.0491 27.1661 94.8362 27.2242C94.6232 27.3404 94.4006 27.4081 94.1683 27.4275C94.0715 27.4468 93.9747 27.4662 93.8779 27.4856C93.8005 27.4856 93.7134 27.4856 93.6166 27.4856H83.0756C82.9594 27.4856 82.8433 27.4856 82.7271 27.4856C82.611 27.4856 82.4948 27.4759 82.3786 27.4565C82.3206 27.4372 82.2625 27.4275 82.2044 27.4275C82.1657 27.4275 82.127 27.4178 82.0883 27.3984C82.0108 27.3791 81.9334 27.3694 81.856 27.3694C81.7979 27.35 81.7204 27.3307 81.6236 27.3113C81.4107 27.1952 81.2461 27.0887 81.13 26.9919C80.8977 26.8177 80.7718 26.6338 80.7525 26.4402V26.4111C80.7138 26.3143 80.6847 26.2272 80.6654 26.1498C80.6654 26.0723 80.6751 25.9756 80.6944 25.8594C80.6944 25.84 80.6847 25.8304 80.6654 25.8304C80.6654 25.811 80.6654 25.782 80.6654 25.7432C80.6654 25.6271 80.6847 25.5206 80.7235 25.4238C80.7622 25.3077 80.8009 25.1915 80.8396 25.0754C80.8783 25.0173 80.9074 24.9592 80.9267 24.9011C80.9654 24.8237 81.0138 24.7559 81.0719 24.6979C81.1106 24.6011 81.159 24.5043 81.2171 24.4075C81.2945 24.3107 81.3526 24.2139 81.3913 24.1171C81.4301 24.0396 81.4688 23.9622 81.5075 23.8848C81.5656 23.788 81.614 23.7105 81.6527 23.6525C81.7301 23.575 81.7882 23.5073 81.8269 23.4492C81.885 23.3718 81.9334 23.2943 81.9721 23.2169L83.4821 21.0971L86.1827 17.1769C86.6086 16.6155 87.0248 16.0347 87.4314 15.4346C87.8573 14.8151 88.2928 14.1762 88.7381 13.518C89.0672 13.0147 89.3673 12.5791 89.6383 12.2113C89.9093 11.8241 90.1997 11.4079 90.5094 10.9626C89.8319 10.9626 89.193 10.9626 88.5929 10.9626C88.0121 10.9626 87.4314 10.9626 86.8506 10.9626C86.2698 10.9433 85.66 10.9336 85.0212 10.9336C84.4017 10.9142 83.7144 10.8949 82.9594 10.8755C82.6884 10.8562 82.369 10.8174 82.0011 10.7594C81.6527 10.6819 81.3623 10.5367 81.13 10.3238C80.917 10.1302 80.7912 9.92692 80.7525 9.71397C80.6944 9.52038 80.6654 9.28807 80.6654 9.01705C80.6654 8.7073 80.7525 8.43627 80.9267 8.20397C81.1203 7.9523 81.3623 7.76839 81.6527 7.65223C82.0592 7.49736 82.4561 7.41993 82.8433 7.41993C83.0562 7.40057 83.2692 7.39089 83.4821 7.39089C83.6951 7.39089 83.8983 7.37153 84.0919 7.33281H84.2371C84.7985 7.31345 85.631 7.31345 86.7344 7.33281C87.8573 7.33281 89.2608 7.33281 90.945 7.33281C91.158 7.33281 91.3806 7.33281 91.6129 7.33281C91.8452 7.31345 92.0678 7.31345 92.2808 7.33281C92.726 7.37153 93.1907 7.38121 93.6746 7.36185C94.178 7.34249 94.6329 7.44896 95.0395 7.68127C95.1556 7.73935 95.2621 7.8071 95.3589 7.88454C95.4557 7.96198 95.5621 8.02973 95.6783 8.08781C95.9106 8.30076 96.0171 8.55243 95.9977 8.84281C95.9977 9.1332 95.93 9.43326 95.7945 9.74301C95.6783 10.0528 95.5234 10.3528 95.3298 10.6432C95.1362 10.9336 94.9717 11.1756 94.8362 11.3692Z" fill="white"/>
</svg>
