<svg width="29" height="29" viewBox="0 0 29 29" fill="none" xmlns="http://www.w3.org/2000/svg">
<path fill-rule="evenodd" clip-rule="evenodd" d="M14.2389 21.0539H15.6309C15.6309 21.0539 16.0369 20.9959 16.2689 20.7639C16.4719 20.5609 16.4719 20.1549 16.4719 20.1549C16.4719 20.1549 16.4429 18.2989 17.3129 18.0089C18.1539 17.7479 19.2559 19.8069 20.4159 20.5899C21.2859 21.1989 21.9529 21.0539 21.9529 21.0539L25.0559 21.0249C25.0559 21.0249 26.6799 20.9379 25.8969 19.6619C25.8389 19.5459 25.4619 18.7049 23.6059 16.9939C21.6629 15.1959 21.9239 15.4859 24.2729 12.3539C25.6939 10.4689 26.2739 9.30894 26.0999 8.78694C25.9259 8.32294 24.8819 8.43894 24.8819 8.43894L21.4019 8.46794C21.4019 8.46794 21.1409 8.43894 20.9379 8.55494C20.7059 8.69994 20.5899 8.96094 20.5899 8.96094C20.5899 8.96094 20.0389 10.4399 19.3139 11.6869C17.7479 14.3259 17.1389 14.4709 16.8779 14.2969C16.2979 13.9199 16.4429 12.7599 16.4429 11.9479C16.4429 9.39594 16.8199 8.32294 15.6889 8.06194C15.3119 7.97494 15.0219 7.91694 14.0649 7.88794C12.8179 7.88794 11.7739 7.88794 11.1649 8.17794C10.7589 8.38094 10.4689 8.81594 10.6429 8.81594C10.8749 8.84494 11.3969 8.96094 11.6579 9.33794C12.0059 9.83094 12.0059 10.9039 12.0059 10.9039C12.0059 10.9039 12.2089 13.9199 11.5129 14.2969C11.0489 14.5579 10.4109 14.0359 9.01895 11.6289C8.32295 10.4109 7.77195 9.04794 7.77195 9.04794C7.77195 9.04794 7.65595 8.78694 7.48195 8.67094C7.33695 8.55494 7.04695 8.46794 6.72795 8.46794L3.62495 8.49694C3.62495 8.49694 3.13195 8.49694 2.95795 8.72894C2.78395 8.93194 2.95795 9.30894 2.95795 9.30894C2.95795 9.30894 5.56795 15.3699 8.49695 18.4149C11.1939 21.2569 14.2389 21.0539 14.2389 21.0539Z" fill="white"/>
</svg>
